<svg width="230" height="230" viewBox="0 0 230 230" fill="none" xmlns="http://www.w3.org/2000/svg">
<path d="M0 115C0 51.4873 51.4873 0 115 0V0C178.513 0 230 51.4873 230 115V115C230 178.513 178.513 230 115 230V230C51.4873 230 0 178.513 0 115V115Z" fill="#FFD8BF"/>
<path fill-rule="evenodd" clip-rule="evenodd" d="M157 222.089C143.989 227.196 129.822 230 115 230C100.178 230 86.0107 227.196 73 222.089V207.926C73 193.567 84.6406 181.926 99 181.926H131C145.359 181.926 157 193.567 157 207.926V222.089Z" fill="#7210B5"/>
<path d="M103 157.418H128V184.508C128 191.412 122.404 197.008 115.5 197.008V197.008C108.596 197.008 103 191.412 103 184.508V157.418Z" fill="#D18643"/>
<ellipse cx="165.5" cy="126.867" rx="12.5" ry="11.7828" fill="#D18643"/>
<ellipse cx="65.5" cy="126.867" rx="12.5" ry="11.7828" fill="#D18643"/>
<path d="M67.0723 116.499C65.9443 93.1075 84.6056 73.5247 108.025 73.5247H122.797C145.905 73.5247 164.448 92.6119 163.779 115.71L163.152 137.399C162.51 159.572 144.351 177.213 122.169 177.213H109.071C87.1946 177.213 69.1718 160.039 68.1182 138.188L67.0723 116.499Z" fill="#E3A063"/>
<path d="M111.243 146.335C108.899 144.126 108.899 140.545 111.243 138.337L114.758 135.023C115.159 134.645 115.811 134.645 116.213 135.023L119.728 138.337C122.071 140.545 122.071 144.126 119.728 146.335V146.335C117.385 148.544 113.586 148.544 111.243 146.335V146.335Z" fill="#D18643"/>
<path d="M124 155.533C122.64 158.675 119.291 160.246 115.16 160.246C111.029 160.246 108.36 158.151 107 155.533" stroke="#D1753A" stroke-width="5" stroke-linecap="round"/>
<path d="M161.781 53.9457C155.964 46.0627 145.994 40.8587 134.66 40.8587C129.911 40.8587 125.409 41.7774 121.34 43.4175C115.458 38.1421 107.335 34.877 98.3561 34.877C84.6758 34.877 72.9785 42.4556 68.1843 53.1811C50.846 53.8011 37 66.5856 37 82.2784C37 91.9893 42.3078 100.584 50.4602 105.875C48.8817 108.556 47.9866 111.609 47.9866 114.849C47.9866 124.395 66.5 136.209 68.5 133.852C70.5 131.496 69 125.369 70 121.127C71 116.885 78 112.172 78 112.172C78 112.172 83.179 109.349 88.5287 105.875C93.4718 102.668 97.3625 98.2473 99.6642 93.0997C103.932 92.9475 107.982 92.057 111.676 90.5691C113.565 89.8063 115.357 88.8876 117.036 87.828C117.944 90.9786 119.43 93.9188 121.378 96.5621C124.958 101.413 130.109 105.245 136.184 107.477C139.984 108.875 144.143 109.649 148.499 109.649C153.937 109.649 158.5 116.414 160 118.77C160 118.77 160.5 128.197 163.5 129.139C166.5 130.082 178.881 119.51 178.881 110.793C178.881 106.153 177.051 101.896 174.003 98.5686C178.38 93.6069 181 87.3414 181 80.5237C181 68.6822 173.105 58.4959 161.781 53.9457Z" fill="#5B3B0D"/>
<path fill-rule="evenodd" clip-rule="evenodd" d="M111.147 134.132C112.333 131.84 113 129.259 113 126.529C113 117.038 104.941 109.344 95 109.344C85.0589 109.344 77 117.038 77 126.529C77 129.259 77.6667 131.84 78.8532 134.132C82.661 132.015 88.4797 130.662 95.0002 130.662C101.521 130.662 107.339 132.015 111.147 134.132Z" fill="#FDFFFF"/>
<path fill-rule="evenodd" clip-rule="evenodd" d="M105.131 131.848C106.598 129.921 107.462 127.559 107.462 125.006C107.462 118.519 101.882 113.26 95.0001 113.26C88.1178 113.26 82.5386 118.519 82.5386 125.006C82.5386 127.559 83.4024 129.921 84.8695 131.848C87.8663 131.093 91.3215 130.662 95.0002 130.662C98.6788 130.662 102.134 131.093 105.131 131.848Z" fill="#351802"/>
<ellipse cx="92" cy="119.713" rx="4" ry="3.77049" fill="#FDFFFF"/>
<path fill-rule="evenodd" clip-rule="evenodd" d="M119.853 134.132C118.667 131.84 118 129.259 118 126.529C118 117.038 126.059 109.344 136 109.344C145.941 109.344 154 117.038 154 126.529C154 129.259 153.333 131.84 152.147 134.132C148.339 132.015 142.52 130.662 136 130.662C129.479 130.662 123.661 132.015 119.853 134.132Z" fill="#FDFFFF"/>
<path fill-rule="evenodd" clip-rule="evenodd" d="M125.869 131.848C124.402 129.921 123.538 127.559 123.538 125.006C123.538 118.519 129.118 113.26 136 113.26C142.882 113.26 148.461 118.519 148.461 125.006C148.461 127.559 147.598 129.921 146.131 131.848C143.134 131.093 139.678 130.662 136 130.662C132.321 130.662 128.866 131.093 125.869 131.848Z" fill="#351802"/>
<ellipse cx="4" cy="3.77049" rx="4" ry="3.77049" transform="matrix(-1 0 0 1 143 115.943)" fill="#FDFFFF"/>
</svg>
