<svg width="230" height="230" viewBox="0 0 230 230" fill="none" xmlns="http://www.w3.org/2000/svg">
<rect width="230" height="230" rx="115" fill="#FF363C"/>
<path fill-rule="evenodd" clip-rule="evenodd" d="M153 223.574C141.104 227.737 128.317 230 115 230C102.056 230 89.6111 227.861 78 223.918V207.926C78 193.567 89.6406 181.926 104 181.926H127C141.359 181.926 153 193.567 153 207.926V223.574Z" fill="#58DC00"/>
<path d="M103 157.418H128V184.508C128 191.412 122.404 197.008 115.5 197.008V197.008C108.596 197.008 103 191.412 103 184.508V157.418Z" fill="#FFB585"/>
<ellipse cx="165.5" cy="126.867" rx="12.5" ry="11.7828" fill="#FFB585"/>
<ellipse cx="65.5" cy="126.867" rx="12.5" ry="11.7828" fill="#FFB585"/>
<path d="M65 123.525C65 111.433 65 105.387 66.3998 100.444C69.8997 88.0842 79.5595 78.4244 91.9189 74.9245C96.8623 73.5247 102.908 73.5247 115 73.5247V73.5247C127.092 73.5247 133.138 73.5247 138.081 74.9245C150.441 78.4244 160.1 88.0842 163.6 100.444C165 105.387 165 111.433 165 123.525V127.213C165 139.305 165 145.351 163.6 150.294C160.1 162.654 150.441 172.313 138.081 175.813C133.138 177.213 127.092 177.213 115 177.213V177.213C102.908 177.213 96.8623 177.213 91.9189 175.813C79.5595 172.313 69.8997 162.654 66.3998 150.294C65 145.351 65 139.305 65 127.213V123.525Z" fill="#FFD8BF"/>
<path d="M111.243 146.335C108.899 144.126 108.899 140.545 111.243 138.337L114.758 135.023C115.159 134.645 115.811 134.645 116.213 135.023L119.728 138.337C122.071 140.545 122.071 144.126 119.728 146.335V146.335C117.385 148.544 113.586 148.544 111.243 146.335V146.335Z" fill="#FFB585"/>
<path d="M125 156.475C123.4 157.732 119.46 158.361 114.6 158.361C109.74 158.361 106.6 157.523 105 156.475" stroke="#FF9B5A" stroke-width="5" stroke-linecap="round"/>
<path d="M114.827 39.5901C91.8153 39.5901 72.6103 54.8753 67.9438 75.2563H161.712C157.045 54.8753 137.84 39.5901 114.827 39.5901Z" fill="#FFE500"/>
<path d="M166.158 75.9685C165.045 75.5164 163.819 75.2563 162.529 75.2563H67.1272C65.8371 75.2563 64.615 75.5164 63.4977 75.9685C60.2633 77.2939 58 80.3288 58 83.8721V97.5021C58 99.852 59 101.979 60.611 103.533C62.2714 105.122 64.5779 106.112 67.1272 106.112H162.529C166.135 106.112 169.244 104.135 170.73 101.272C171.318 100.135 171.656 98.8585 171.656 97.5021V83.8721C171.656 80.3288 169.397 77.2939 166.158 75.9685Z" fill="#1ABCFE"/>
<path d="M67.2177 99.4949C67.2177 100.979 65.9359 102.186 64.3619 102.186C62.7879 102.186 61.5122 100.979 61.5122 99.4949V81.8792C61.5122 80.3947 62.7879 79.1858 64.3619 79.1858C65.9359 79.1858 67.2177 80.3947 67.2177 81.8792V99.4949Z" fill="#7EDAFF"/>
<path d="M77.2563 99.4949C77.2563 100.979 75.9765 102.186 74.4005 102.186C72.8264 102.186 71.5508 100.979 71.5508 99.4949V81.8792C71.5508 80.3947 72.8264 79.1858 74.4005 79.1858C75.9765 79.1858 77.2563 80.3947 77.2563 81.8792V99.4949Z" fill="#7EDAFF"/>
<path d="M87.2951 99.4949C87.2951 100.979 86.0153 102.186 84.4413 102.186C82.8652 102.186 81.5854 100.979 81.5854 99.4949V81.8792C81.5854 80.3947 82.8652 79.1858 84.4413 79.1858C86.0153 79.1858 87.2951 80.3947 87.2951 81.8792V99.4949Z" fill="#7EDAFF"/>
<path d="M97.3294 99.4949C97.3294 100.979 96.0558 102.186 94.4798 102.186C92.9058 102.186 91.626 100.979 91.626 99.4949V81.8792C91.626 80.3947 92.9058 79.1858 94.4798 79.1858C96.0558 79.1858 97.3294 80.3947 97.3294 81.8792V99.4949Z" fill="#7EDAFF"/>
<path d="M107.369 99.4949C107.369 100.979 106.095 102.186 104.519 102.186C102.939 102.186 101.665 100.979 101.665 99.4949V81.8792C101.665 80.3947 102.939 79.1858 104.519 79.1858C106.095 79.1858 107.369 80.3947 107.369 81.8792V99.4949Z" fill="#7EDAFF"/>
<path d="M117.409 99.4949C117.409 100.979 116.133 102.186 114.553 102.186C112.979 102.186 111.704 100.979 111.704 99.4949V81.8792C111.704 80.3947 112.979 79.1858 114.553 79.1858C116.133 79.1858 117.409 80.3947 117.409 81.8792V99.4949Z" fill="#7EDAFF"/>
<path d="M127.448 99.4949C127.448 100.979 126.168 102.186 124.594 102.186C123.018 102.186 121.744 100.979 121.744 99.4949V81.8792C121.744 80.3947 123.018 79.1858 124.594 79.1858C126.168 79.1858 127.448 80.3947 127.448 81.8792V99.4949Z" fill="#7EDAFF"/>
<path d="M137.488 99.4949C137.488 100.979 136.206 102.186 134.632 102.186C133.058 102.186 131.783 100.979 131.783 99.4949V81.8792C131.783 80.3947 133.058 79.1858 134.632 79.1858C136.206 79.1858 137.488 80.3947 137.488 81.8792V99.4949Z" fill="#7EDAFF"/>
<path d="M147.527 99.4949C147.527 100.979 146.247 102.186 144.671 102.186C143.097 102.186 141.817 100.979 141.817 99.4949V81.8792C141.817 80.3947 143.097 79.1858 144.671 79.1858C146.247 79.1858 147.527 80.3947 147.527 81.8792V99.4949Z" fill="#7EDAFF"/>
<path d="M157.561 99.4949C157.561 100.979 156.286 102.186 154.712 102.186C153.136 102.186 151.856 100.979 151.856 99.4949V81.8792C151.856 80.3947 153.136 79.1858 154.712 79.1858C156.286 79.1858 157.561 80.3947 157.561 81.8792V99.4949Z" fill="#7EDAFF"/>
<path d="M167.6 99.4949C167.6 100.979 166.327 102.186 164.751 102.186C163.171 102.186 161.897 100.979 161.897 99.4949V81.8792C161.897 80.3947 163.171 79.1858 164.751 79.1858C166.327 79.1858 167.6 80.3947 167.6 81.8792V99.4949Z" fill="#7EDAFF"/>
<rect x="80" y="113.115" width="27" height="26.3934" rx="13.1967" fill="#FEFEFE"/>
<ellipse cx="93.5" cy="127.725" rx="9.5" ry="8.95492" fill="#A56649"/>
<ellipse cx="96" cy="128.668" rx="3" ry="3.29918" fill="#FEFEFE"/>
<rect x="124" y="113.115" width="27" height="26.3934" rx="13.1967" fill="#FEFEFE"/>
<ellipse cx="137.5" cy="127.725" rx="9.5" ry="8.95492" fill="#A56649"/>
<ellipse cx="140" cy="128.668" rx="3" ry="3.29918" fill="#FEFEFE"/>
</svg>
