<svg width="230" height="230" viewBox="0 0 230 230" fill="none" xmlns="http://www.w3.org/2000/svg">
<rect width="230" height="230" rx="115" fill="#1ABCFE"/>
<path fill-rule="evenodd" clip-rule="evenodd" d="M153 223.574C141.104 227.737 128.317 230 115 230C102.056 230 89.6111 227.861 78 223.918V207.926C78 193.567 89.6406 181.926 104 181.926H127C141.359 181.926 153 193.567 153 207.926V223.574Z" fill="#58DC00"/>
<path d="M103 157.418H128V184.508C128 191.412 122.404 197.008 115.5 197.008V197.008C108.596 197.008 103 191.412 103 184.508V157.418Z" fill="#905940"/>
<ellipse cx="165.5" cy="126.867" rx="12.5" ry="11.7828" fill="#905940"/>
<ellipse cx="65.5" cy="126.867" rx="12.5" ry="11.7828" fill="#905940"/>
<path d="M65 123.525C65 111.433 65 105.387 66.3998 100.444C69.8997 88.0842 79.5595 78.4244 91.9189 74.9245C96.8623 73.5247 102.908 73.5247 115 73.5247V73.5247C127.092 73.5247 133.138 73.5247 138.081 74.9245C150.441 78.4244 160.1 88.0842 163.6 100.444C165 105.387 165 111.433 165 123.525V127.213C165 139.305 165 145.351 163.6 150.294C160.1 162.654 150.441 172.313 138.081 175.813C133.138 177.213 127.092 177.213 115 177.213V177.213C102.908 177.213 96.8623 177.213 91.9189 175.813C79.5595 172.313 69.8997 162.654 66.3998 150.294C65 145.351 65 139.305 65 127.213V123.525Z" fill="#A56649"/>
<path d="M111.243 146.335C108.899 144.126 108.899 140.545 111.243 138.337L114.758 135.023C115.159 134.645 115.811 134.645 116.213 135.023L119.728 138.337C122.071 140.545 122.071 144.126 119.728 146.335V146.335C117.385 148.544 113.586 148.544 111.243 146.335V146.335Z" fill="#905940"/>
<path d="M105 158.361C106.6 157.104 110.54 156.475 115.4 156.475C120.26 156.475 123.4 157.313 125 158.361" stroke="#88401F" stroke-width="5" stroke-linecap="round"/>
<ellipse cx="152.5" cy="73.9958" rx="32.5" ry="29.6926" fill="#311203"/>
<ellipse cx="115.5" cy="74.4672" rx="18.5" ry="16.9672" fill="#311203"/>
<ellipse cx="159" cy="108.873" rx="14" ry="12.7254" fill="#311203"/>
<path d="M93.932 140.664C85.4958 140.664 78.6557 134.217 78.6557 126.26C78.6557 118.3 85.4958 111.853 93.932 111.853C102.366 111.853 109.208 118.3 109.208 126.26C109.208 134.217 102.366 140.664 93.932 140.664ZM93.932 108.402C83.475 108.402 75 116.4 75 126.26C75 136.123 83.475 144.115 93.932 144.115C104.387 144.115 112.866 136.123 112.866 126.26C112.866 116.4 104.387 108.402 93.932 108.402Z" fill="#78B13C"/>
<path d="M135.76 140.664C127.324 140.664 120.484 134.217 120.484 126.26C120.484 118.3 127.324 111.853 135.76 111.853C144.194 111.853 151.036 118.3 151.036 126.26C151.036 134.217 144.194 140.664 135.76 140.664ZM135.76 108.402C125.303 108.402 116.828 116.4 116.828 126.26C116.828 136.123 125.303 144.115 135.76 144.115C146.215 144.115 154.694 136.123 154.694 126.26C154.694 116.4 146.215 108.402 135.76 108.402Z" fill="#78B13C"/>
<rect x="111" y="123.484" width="8" height="6.59836" fill="#78B13C"/>
<rect x="80" y="113.115" width="27" height="26.3934" rx="13.1967" fill="#FEFEFE"/>
<ellipse cx="93.5" cy="127.725" rx="9.5" ry="8.95492" fill="#1652A4"/>
<ellipse cx="96" cy="128.668" rx="3" ry="3.29918" fill="#FEFEFE"/>
<rect x="124" y="113.115" width="27" height="26.3934" rx="13.1967" fill="#FEFEFE"/>
<ellipse cx="137.5" cy="127.725" rx="9.5" ry="8.95492" fill="#1652A4"/>
<ellipse cx="140" cy="128.668" rx="3" ry="3.29918" fill="#FEFEFE"/>
</svg>
